<svg width="630" height="608" viewBox="0 0 630 608" fill="none" xmlns="http://www.w3.org/2000/svg">
<g clip-path="url(#clip0_1_53)">
<mask id="mask0_1_53" style="mask-type:alpha" maskUnits="userSpaceOnUse" x="0" y="0" width="630" height="608">
<path d="M95.84 432.41C97.33 463.68 101.97 493.01 109.77 520.42C102.74 521.35 94.85 523.97 86.1 528.25L85.46 527.87C84.75 504.34 83.01 484.41 80.25 468.1C73.5 484.07 67.61 501.51 62.56 520.42C55.47 521.35 47.58 523.97 38.88 528.25L38.25 527.87C33.37 505.61 27.71 486.24 21.26 469.75C17.65 486.11 15.51 503.7 14.83 522.52C10.29 523.92 5.56 525.83 0.64 528.25L0 527.87C6.7 499.53 10.97 473.39 12.79 449.42C11.18 446.03 9.21 442.84 6.88 439.87C13.92 438.93 21.81 436.32 30.55 432.03L31.19 432.41C37.89 461.68 45.84 486.43 55.05 506.65C62.98 487.87 69.57 467.63 74.84 445.92C74.08 443.46 72.97 441.44 71.53 439.87C78.57 438.93 86.46 436.32 95.2 432.03L95.84 432.41Z" fill="#218DA4"/>
<path d="M170.44 550.6H181.52V606.4H172.85V565.84L157.56 606.4H150.07L135.32 565.92V606.4H126.8V550.6H138.28L154.12 594.99L170.44 550.6Z" fill="#218DA4"/>
<path d="M183.85 503.91L184.23 504.55C179.9 513.38 177.3 521.29 176.41 528.25C168.17 525.71 159.49 524.43 150.38 524.43C140.23 524.43 130.08 525.71 119.96 528.25L119.32 527.87C121.27 510.75 122.25 495.5 122.25 482.11C122.25 469.66 121.27 455.59 119.32 439.87C126.38 438.93 134.3 436.32 143.06 432.03C148.53 435.22 154.02 436.81 159.54 436.81C166.07 436.81 172.63 435.22 179.21 432.03L179.58 432.67C175.17 441.5 172.57 448.68 171.76 454.2C164.63 454.2 158.65 452.76 153.81 449.87C148.97 446.99 145.45 442.31 143.25 435.85C141.51 449.96 140.59 464.01 140.51 478.04C151.04 478.04 161.62 474.25 172.27 466.69L172.65 467.33C168.36 476.13 165.75 484.02 164.83 491.04C156.59 488.49 148.55 487.22 140.7 487.22C141.05 495.33 141.8 504.46 143 514.62C145.45 515.04 148.02 515.26 150.69 515.26C162.15 515.26 173.2 511.47 183.85 503.91Z" fill="#218DA4"/>
<path d="M229.36 598.28H258.47L257.37 606.4H219.91V550.6H256.98V558.73H229.36V573.58H255.42V581.79H229.36V598.28Z" fill="#218DA4"/>
<path d="M269.13 479.83C269.13 491.7 266.34 501.8 260.78 510.13C252.76 522.21 241.8 528.25 227.89 528.25C225.25 528.25 221.61 527.88 216.94 527.12C213 526.48 210.07 526.16 208.16 526.16C204.04 526.16 199.83 526.86 195.5 528.25L194.86 527.89C196.81 518.47 197.79 508.67 197.79 498.49C197.79 488.31 196.81 479.9 194.86 471.91C201.9 470.97 209.79 468.33 218.53 464L219.17 464.38C217.05 473.65 215.99 483.86 215.99 495.01C215.99 502.91 216.62 510.18 217.89 516.83C221.63 517.9 224.98 518.44 227.95 518.44C235.76 518.44 241.81 514.28 246.09 505.95C249.14 499.99 250.67 492.94 250.67 484.78C250.67 475.9 248.31 468.46 243.61 462.45C238.6 456.11 230.88 452.93 220.45 452.93C208.52 452.93 197.83 457.35 188.37 466.18L187.99 465.61C191.68 455.23 193.73 446.34 194.16 438.91C203.41 434.32 212.66 432.03 221.9 432.03C235.38 432.03 246.46 436.11 255.13 444.26C264.46 453.07 269.13 464.92 269.13 479.83Z" fill="#218DA4"/>
<path d="M308.96 520.42C301.92 521.35 294.03 523.97 285.29 528.25L284.65 527.87C286.6 510.75 287.58 495.5 287.58 482.11C287.58 469.66 286.6 455.59 284.65 439.87C291.7 438.93 299.59 436.32 308.33 432.03L308.96 432.41C306.88 447.88 305.82 463.3 305.78 478.68C305.78 490.1 306.84 504.02 308.96 520.42Z" fill="#218DA4"/>
<path d="M337.59 550.6H348.68V606.4H340.01V565.84L324.72 606.4H317.22L302.48 565.92V606.4H293.97V550.6H305.44L321.28 594.99L337.59 550.6Z" fill="#218DA4"/>
<path d="M391.69 504.55C387.36 513.38 384.75 521.29 383.86 528.25C375.63 525.71 366.95 524.43 357.84 524.43C347.68 524.43 337.54 525.71 327.42 528.25L326.78 527.87C328.73 510.75 329.7 495.5 329.7 482.11C329.7 469.66 328.73 455.59 326.78 439.87C333.84 438.93 341.75 436.32 350.52 432.03C355.99 435.22 361.48 436.81 367 436.81C373.53 436.81 380.09 435.22 386.67 432.03L387.04 432.67C382.63 441.5 380.03 448.68 379.21 454.2C372.09 454.2 366.11 452.76 361.27 449.87C356.43 446.99 352.91 442.31 350.7 435.85C348.96 449.96 348.05 464.01 347.97 478.04C358.49 478.04 369.08 474.25 379.73 466.69L380.11 467.33C375.82 476.13 373.21 484.02 372.28 491.04C364.05 488.49 356.01 487.22 348.16 487.22C348.5 495.33 349.26 504.46 350.46 514.62C352.91 515.04 355.48 515.26 358.15 515.26C369.61 515.26 380.66 511.47 391.31 503.91L391.69 504.55Z" fill="#218DA4"/>
<path d="M396.52 598.28H425.62L424.53 606.4H387.07V550.6H424.14V558.73H396.52V573.58H422.58V581.79H396.52V598.28Z" fill="#218DA4"/>
<path d="M225.3 298.25C225.3 295.05 227.89 292.46 231.09 292.46C234.29 292.46 236.87 295.05 236.87 298.25C236.87 301.45 234.28 304.04 231.09 304.04C227.9 304.04 225.3 301.45 225.3 298.25Z" fill="#218DA4"/>
<path d="M237.17 332.48C237.17 335.68 234.58 338.27 231.38 338.27C228.18 338.27 225.6 335.68 225.6 332.48C225.6 329.28 228.19 326.68 231.38 326.68C234.57 326.68 237.17 329.28 237.17 332.48Z" fill="#218DA4"/>
<path d="M240.32 261.44C240.32 264.64 237.73 267.24 234.53 267.24C231.33 267.24 228.75 264.64 228.75 261.44C228.75 258.24 231.34 255.65 234.53 255.65C237.72 255.65 240.32 258.24 240.32 261.44Z" fill="#218DA4"/>
<path d="M253.82 349.16C253.82 352.36 251.23 354.95 248.03 354.95C244.83 354.95 242.25 352.36 242.25 349.16C242.25 345.96 244.84 343.37 248.03 343.37C251.22 343.37 253.82 345.96 253.82 349.16Z" fill="#218DA4"/>
<path d="M254.11 315.51C254.11 318.71 251.52 321.31 248.33 321.31C245.14 321.31 242.54 318.71 242.54 315.51C242.54 312.31 245.13 309.72 248.33 309.72C251.53 309.72 254.11 312.31 254.11 315.51Z" fill="#218DA4"/>
<path d="M256.98 278.12C256.98 281.32 254.39 283.92 251.19 283.92C247.99 283.92 245.4 281.32 245.4 278.12C245.4 274.92 247.99 272.33 251.19 272.33C254.39 272.33 256.98 274.92 256.98 278.12Z" fill="#218DA4"/>
<path d="M257 244.74C257 247.94 254.41 250.53 251.21 250.53C248.01 250.53 245.43 247.94 245.43 244.74C245.43 241.54 248.02 238.94 251.21 238.94C254.4 238.94 257 241.54 257 244.74Z" fill="#218DA4"/>
<path d="M270.77 332.19C270.77 335.39 268.18 337.98 264.98 337.98C261.78 337.98 259.2 335.39 259.2 332.19C259.2 328.99 261.78 326.4 264.98 326.4C268.18 326.4 270.77 328.99 270.77 332.19Z" fill="#218DA4"/>
<path d="M262.08 261.42C262.08 258.22 264.67 255.63 267.87 255.63C271.07 255.63 273.65 258.22 273.65 261.42C273.65 264.62 271.06 267.22 267.87 267.22C264.68 267.22 262.08 264.62 262.08 261.42Z" fill="#218DA4"/>
<path d="M274.22 295.38C274.22 298.58 271.63 301.18 268.43 301.18C265.23 301.18 262.64 298.58 262.64 295.38C262.64 292.18 265.23 289.59 268.43 289.59C271.63 289.59 274.22 292.18 274.22 295.38Z" fill="#218DA4"/>
<path d="M350.97 292.46C347.78 292.46 345.19 295.05 345.19 298.25C345.19 301.45 347.78 304.04 350.97 304.04C354.16 304.04 356.76 301.45 356.76 298.25C356.76 295.05 354.17 292.46 350.97 292.46ZM351.26 326.68C348.07 326.68 345.48 329.28 345.48 332.48C345.48 335.68 348.07 338.27 351.26 338.27C354.45 338.27 357.05 335.68 357.05 332.48C357.05 329.28 354.46 326.68 351.26 326.68ZM354.41 255.65C351.22 255.65 348.63 258.24 348.63 261.44C348.63 264.64 351.22 267.24 354.41 267.24C357.6 267.24 360.2 264.64 360.2 261.44C360.2 258.24 357.61 255.65 354.41 255.65ZM367.92 343.37C364.72 343.37 362.13 345.96 362.13 349.16C362.13 352.36 364.72 354.95 367.92 354.95C371.12 354.95 373.7 352.36 373.7 349.16C373.7 345.96 371.11 343.37 367.92 343.37ZM368.21 309.72C365.01 309.72 362.42 312.31 362.42 315.51C362.42 318.71 365.01 321.31 368.21 321.31C371.41 321.31 373.99 318.71 373.99 315.51C373.99 312.31 371.4 309.72 368.21 309.72ZM371.07 272.33C367.87 272.33 365.28 274.92 365.28 278.12C365.28 281.32 367.87 283.92 371.07 283.92C374.27 283.92 376.86 281.32 376.86 278.12C376.86 274.92 374.27 272.33 371.07 272.33ZM371.09 238.94C367.9 238.94 365.31 241.54 365.31 244.74C365.31 247.94 367.9 250.53 371.09 250.53C374.28 250.53 376.88 247.94 376.88 244.74C376.88 241.54 374.29 238.94 371.09 238.94ZM384.86 326.4C381.67 326.4 379.08 328.99 379.08 332.19C379.08 335.39 381.67 337.98 384.86 337.98C388.05 337.98 390.65 335.39 390.65 332.19C390.65 328.99 388.06 326.4 384.86 326.4ZM387.75 255.63C384.55 255.63 381.96 258.22 381.96 261.42C381.96 264.62 384.55 267.22 387.75 267.22C390.95 267.22 393.53 264.62 393.53 261.42C393.53 258.22 390.94 255.63 387.75 255.63ZM388.31 289.59C385.11 289.59 382.52 292.18 382.52 295.38C382.52 298.58 385.11 301.18 388.31 301.18C391.51 301.18 394.1 298.58 394.1 295.38C394.1 292.18 391.51 289.59 388.31 289.59ZM404.97 306.27C401.77 306.27 399.18 308.86 399.18 312.06C399.18 315.26 401.77 317.86 404.97 317.86C408.17 317.86 410.75 315.27 410.75 312.06C410.75 308.85 408.16 306.27 404.97 306.27ZM404.97 272.89C401.78 272.89 399.19 275.48 399.19 278.68C399.19 281.88 401.78 284.48 404.97 284.48C408.16 284.48 410.76 281.88 410.76 278.68C410.76 275.48 408.17 272.89 404.97 272.89ZM404.97 284.48C408.17 284.48 410.76 281.88 410.76 278.68C410.76 275.48 408.17 272.89 404.97 272.89C401.77 272.89 399.19 275.48 399.19 278.68C399.19 281.88 401.78 284.48 404.97 284.48ZM404.97 306.27C401.77 306.27 399.18 308.86 399.18 312.06C399.18 315.26 401.77 317.86 404.97 317.86C408.17 317.86 410.75 315.27 410.75 312.06C410.75 308.85 408.16 306.27 404.97 306.27ZM388.31 289.59C385.11 289.59 382.52 292.18 382.52 295.38C382.52 298.58 385.11 301.18 388.31 301.18C391.51 301.18 394.1 298.58 394.1 295.38C394.1 292.18 391.51 289.59 388.31 289.59ZM387.75 267.22C390.94 267.22 393.53 264.62 393.53 261.42C393.53 258.22 390.94 255.63 387.75 255.63C384.56 255.63 381.96 258.22 381.96 261.42C381.96 264.62 384.55 267.22 387.75 267.22ZM384.86 326.4C381.67 326.4 379.08 328.99 379.08 332.19C379.08 335.39 381.67 337.98 384.86 337.98C388.05 337.98 390.65 335.39 390.65 332.19C390.65 328.99 388.06 326.4 384.86 326.4ZM371.09 238.94C367.9 238.94 365.31 241.54 365.31 244.74C365.31 247.94 367.9 250.53 371.09 250.53C374.28 250.53 376.88 247.94 376.88 244.74C376.88 241.54 374.29 238.94 371.09 238.94ZM371.07 272.33C367.87 272.33 365.28 274.92 365.28 278.12C365.28 281.32 367.87 283.92 371.07 283.92C374.27 283.92 376.86 281.32 376.86 278.12C376.86 274.92 374.27 272.33 371.07 272.33ZM368.21 309.72C365.01 309.72 362.42 312.31 362.42 315.51C362.42 318.71 365.01 321.31 368.21 321.31C371.41 321.31 373.99 318.71 373.99 315.51C373.99 312.31 371.4 309.72 368.21 309.72ZM367.92 343.37C364.72 343.37 362.13 345.96 362.13 349.16C362.13 352.36 364.72 354.95 367.92 354.95C371.12 354.95 373.7 352.36 373.7 349.16C373.7 345.96 371.11 343.37 367.92 343.37ZM354.41 255.65C351.22 255.65 348.63 258.24 348.63 261.44C348.63 264.64 351.22 267.24 354.41 267.24C357.6 267.24 360.2 264.64 360.2 261.44C360.2 258.24 357.61 255.65 354.41 255.65ZM351.26 326.68C348.07 326.68 345.48 329.28 345.48 332.48C345.48 335.68 348.07 338.27 351.26 338.27C354.45 338.27 357.05 335.68 357.05 332.48C357.05 329.28 354.46 326.68 351.26 326.68ZM350.97 304.04C354.17 304.04 356.76 301.45 356.76 298.25C356.76 295.05 354.17 292.46 350.97 292.46C347.77 292.46 345.19 295.05 345.19 298.25C345.19 301.45 347.78 304.04 350.97 304.04ZM434.05 327.42C433.99 326.37 428.87 221.93 425.07 141.39L425.05 140.78L424.94 140.17C418 99.32 397.13 62.43 364.58 33.5C340.08 11.72 317.67 2.07 316.73 1.67L312.78 0L308.84 1.67C307.89 2.07 285.48 11.72 260.97 33.5C228.43 62.43 207.55 99.32 200.62 140.17L200.51 140.78L200.48 141.39C196.68 221.93 191.57 326.37 191.52 327.42L191.4 329.77L192.33 331.92C193.3 334.19 217.3 387.7 310.79 406.49L312.78 406.89L314.77 406.49C408.25 387.7 432.25 334.19 433.23 331.92L434.16 329.77L434.05 327.42ZM220.66 142.97C233.84 67.12 296.4 30.59 312.79 22.22C329.23 30.55 391.68 66.86 404.9 142.97C405.37 152.96 405.86 163.3 406.36 173.77L337.36 175.84L339.06 111.98L312.78 86.4L286.51 111.98L288.2 175.84L219.2 173.77C219.7 163.3 220.19 152.96 220.66 142.97ZM211.85 325.7C211.92 324.43 212 322.72 212.1 320.64C212.73 320.88 213.42 321.01 214.14 321.01C217.34 321.01 219.93 318.42 219.93 315.22C219.93 312.02 217.34 309.42 214.14 309.42C213.62 309.42 213.12 309.5 212.64 309.63C212.95 303.41 213.31 295.87 213.73 287.32C213.96 287.34 214.19 287.37 214.44 287.37C217.63 287.37 220.22 284.77 220.22 281.57C220.22 278.37 217.63 275.78 214.44 275.78C214.38 275.78 214.33 275.78 214.29 275.78C214.69 267.58 215.12 258.74 215.56 249.44C216.01 249.55 216.47 249.62 216.94 249.62C220.14 249.62 222.73 247.02 222.73 243.82C222.73 240.62 220.14 238.03 216.94 238.03C216.66 238.03 216.39 238.05 216.11 238.09C216.18 236.58 216.25 235.05 216.33 233.52L288.48 231.35L288.37 239.1C287.47 238.53 286.41 238.19 285.27 238.19C282.07 238.19 279.48 240.78 279.48 243.98C279.48 247.18 282.07 249.78 285.27 249.78C286.35 249.78 287.36 249.48 288.22 248.96L287.87 273.58C287.05 273.13 286.11 272.88 285.1 272.88C281.91 272.88 279.32 275.47 279.32 278.67C279.32 281.87 281.91 284.47 285.1 284.47C286.05 284.47 286.94 284.24 287.73 283.84L287.39 306.74C286.69 306.43 285.91 306.26 285.08 306.26C281.89 306.26 279.3 308.85 279.3 312.05C279.3 315.25 281.89 317.85 285.08 317.85C285.84 317.85 286.57 317.7 287.23 317.43L286.54 365.95L306.15 384.73C239.84 368.97 216.55 334 211.85 325.69V325.7ZM312.78 375.08L298.17 361.09L300.21 219.42L216.89 221.93C217.05 218.63 217.21 215.3 217.37 211.95L287.8 214.97C287.93 214.97 288.07 214.97 288.2 214.97C293.2 214.97 297.36 211.02 297.58 205.97C297.8 200.78 293.78 196.39 288.6 196.16L218.28 193.15C218.4 190.54 218.53 187.93 218.65 185.32L300.09 187.77L298.2 116.74L312.78 102.54L327.37 116.74L325.48 187.77L406.91 185.32C407.04 187.93 407.16 190.55 407.29 193.15L337.08 196.16C331.9 196.39 327.87 200.78 328.1 205.97C328.31 211.02 332.47 214.97 337.47 214.97C337.61 214.97 337.74 214.97 337.88 214.97L408.19 211.96C408.35 215.3 408.51 218.63 408.67 221.93L325.35 219.42L327.39 361.09L312.78 375.08ZM394.11 348.85C371.39 368.79 342.33 379.26 319.43 384.73L339.03 365.96L338.35 319.06C339.26 318.04 339.81 316.7 339.81 315.22C339.81 313.74 339.21 312.29 338.24 311.26L337.87 286.13C339.22 285.07 340.1 283.43 340.1 281.57C340.1 279.71 339.17 277.96 337.74 276.91L337.35 249.59C340.3 249.33 342.61 246.86 342.61 243.83C342.61 240.8 340.21 238.24 337.18 238.05L337.09 231.36L409.23 233.53C409.34 235.78 409.45 238.02 409.55 240.24C408.49 238.99 406.91 238.2 405.15 238.2C401.95 238.2 399.36 240.79 399.36 243.99C399.36 247.19 401.95 249.79 405.15 249.79C407.11 249.79 408.85 248.81 409.89 247.31C411.74 285.5 413.26 316.6 413.71 325.71C411.58 329.51 405.76 338.63 394.11 348.85ZM404.98 272.89C401.79 272.89 399.2 275.48 399.2 278.68C399.2 281.88 401.79 284.48 404.98 284.48C408.17 284.48 410.77 281.88 410.77 278.68C410.77 275.48 408.18 272.89 404.98 272.89ZM404.98 306.27C401.78 306.27 399.19 308.86 399.19 312.06C399.19 315.26 401.78 317.86 404.98 317.86C408.18 317.86 410.76 315.27 410.76 312.06C410.76 308.85 408.17 306.27 404.98 306.27ZM388.32 289.59C385.12 289.59 382.53 292.18 382.53 295.38C382.53 298.58 385.12 301.18 388.32 301.18C391.52 301.18 394.11 298.58 394.11 295.38C394.11 292.18 391.52 289.59 388.32 289.59ZM387.76 267.22C390.95 267.22 393.54 264.62 393.54 261.42C393.54 258.22 390.95 255.63 387.76 255.63C384.57 255.63 381.97 258.22 381.97 261.42C381.97 264.62 384.56 267.22 387.76 267.22ZM384.87 326.4C381.68 326.4 379.09 328.99 379.09 332.19C379.09 335.39 381.68 337.98 384.87 337.98C388.06 337.98 390.66 335.39 390.66 332.19C390.66 328.99 388.07 326.4 384.87 326.4ZM371.1 238.94C367.91 238.94 365.32 241.54 365.32 244.74C365.32 247.94 367.91 250.53 371.1 250.53C374.29 250.53 376.89 247.94 376.89 244.74C376.89 241.54 374.3 238.94 371.1 238.94ZM371.08 272.33C367.88 272.33 365.29 274.92 365.29 278.12C365.29 281.32 367.88 283.92 371.08 283.92C374.28 283.92 376.87 281.32 376.87 278.12C376.87 274.92 374.28 272.33 371.08 272.33ZM368.22 309.72C365.02 309.72 362.43 312.31 362.43 315.51C362.43 318.71 365.02 321.31 368.22 321.31C371.42 321.31 374 318.71 374 315.51C374 312.31 371.41 309.72 368.22 309.72ZM367.93 343.37C364.73 343.37 362.14 345.96 362.14 349.16C362.14 352.36 364.73 354.95 367.93 354.95C371.13 354.95 373.71 352.36 373.71 349.16C373.71 345.96 371.12 343.37 367.93 343.37ZM354.42 255.65C351.23 255.65 348.64 258.24 348.64 261.44C348.64 264.64 351.23 267.24 354.42 267.24C357.61 267.24 360.21 264.64 360.21 261.44C360.21 258.24 357.62 255.65 354.42 255.65ZM351.27 326.68C348.08 326.68 345.49 329.28 345.49 332.48C345.49 335.68 348.08 338.27 351.27 338.27C354.46 338.27 357.06 335.68 357.06 332.48C357.06 329.28 354.47 326.68 351.27 326.68ZM350.98 304.04C354.18 304.04 356.77 301.45 356.77 298.25C356.77 295.05 354.18 292.46 350.98 292.46C347.78 292.46 345.2 295.05 345.2 298.25C345.2 301.45 347.79 304.04 350.98 304.04ZM350.98 292.46C347.79 292.46 345.2 295.05 345.2 298.25C345.2 301.45 347.79 304.04 350.98 304.04C354.17 304.04 356.77 301.45 356.77 298.25C356.77 295.05 354.18 292.46 350.98 292.46ZM351.27 326.68C348.08 326.68 345.49 329.28 345.49 332.48C345.49 335.68 348.08 338.27 351.27 338.27C354.46 338.27 357.06 335.68 357.06 332.48C357.06 329.28 354.47 326.68 351.27 326.68ZM354.42 255.65C351.23 255.65 348.64 258.24 348.64 261.44C348.64 264.64 351.23 267.24 354.42 267.24C357.61 267.24 360.21 264.64 360.21 261.44C360.21 258.24 357.62 255.65 354.42 255.65ZM367.93 343.37C364.73 343.37 362.14 345.96 362.14 349.16C362.14 352.36 364.73 354.95 367.93 354.95C371.13 354.95 373.71 352.36 373.71 349.16C373.71 345.96 371.12 343.37 367.93 343.37ZM368.22 309.72C365.02 309.72 362.43 312.31 362.43 315.51C362.43 318.71 365.02 321.31 368.22 321.31C371.42 321.31 374 318.71 374 315.51C374 312.31 371.41 309.72 368.22 309.72ZM371.08 272.33C367.88 272.33 365.29 274.92 365.29 278.12C365.29 281.32 367.88 283.92 371.08 283.92C374.28 283.92 376.87 281.32 376.87 278.12C376.87 274.92 374.28 272.33 371.08 272.33ZM371.1 238.94C367.91 238.94 365.32 241.54 365.32 244.74C365.32 247.94 367.91 250.53 371.1 250.53C374.29 250.53 376.89 247.94 376.89 244.74C376.89 241.54 374.3 238.94 371.1 238.94ZM384.87 326.4C381.68 326.4 379.09 328.99 379.09 332.19C379.09 335.39 381.68 337.98 384.87 337.98C388.06 337.98 390.66 335.39 390.66 332.19C390.66 328.99 388.07 326.4 384.87 326.4ZM387.76 255.63C384.56 255.63 381.97 258.22 381.97 261.42C381.97 264.62 384.56 267.22 387.76 267.22C390.96 267.22 393.54 264.62 393.54 261.42C393.54 258.22 390.95 255.63 387.76 255.63ZM388.32 289.59C385.12 289.59 382.53 292.18 382.53 295.38C382.53 298.58 385.12 301.18 388.32 301.18C391.52 301.18 394.11 298.58 394.11 295.38C394.11 292.18 391.52 289.59 388.32 289.59ZM404.98 306.27C401.78 306.27 399.19 308.86 399.19 312.06C399.19 315.26 401.78 317.86 404.98 317.86C408.18 317.86 410.76 315.27 410.76 312.06C410.76 308.85 408.17 306.27 404.98 306.27ZM404.98 272.89C401.79 272.89 399.2 275.48 399.2 278.68C399.2 281.88 401.79 284.48 404.98 284.48C408.17 284.48 410.77 281.88 410.77 278.68C410.77 275.48 408.18 272.89 404.98 272.89ZM404.98 272.89C401.79 272.89 399.2 275.48 399.2 278.68C399.2 281.88 401.79 284.48 404.98 284.48C408.17 284.48 410.77 281.88 410.77 278.68C410.77 275.48 408.18 272.89 404.98 272.89ZM404.98 306.27C401.78 306.27 399.19 308.86 399.19 312.06C399.19 315.26 401.78 317.86 404.98 317.86C408.18 317.86 410.76 315.27 410.76 312.06C410.76 308.85 408.17 306.27 404.98 306.27ZM388.32 289.59C385.12 289.59 382.53 292.18 382.53 295.38C382.53 298.58 385.12 301.18 388.32 301.18C391.52 301.18 394.11 298.58 394.11 295.38C394.11 292.18 391.52 289.59 388.32 289.59ZM387.76 255.63C384.56 255.63 381.97 258.22 381.97 261.42C381.97 264.62 384.56 267.22 387.76 267.22C390.96 267.22 393.54 264.62 393.54 261.42C393.54 258.22 390.95 255.63 387.76 255.63ZM384.87 326.4C381.68 326.4 379.09 328.99 379.09 332.19C379.09 335.39 381.68 337.98 384.87 337.98C388.06 337.98 390.66 335.39 390.66 332.19C390.66 328.99 388.07 326.4 384.87 326.4ZM371.1 238.94C367.91 238.94 365.32 241.54 365.32 244.74C365.32 247.94 367.91 250.53 371.1 250.53C374.29 250.53 376.89 247.94 376.89 244.74C376.89 241.54 374.3 238.94 371.1 238.94ZM371.08 272.33C367.88 272.33 365.29 274.92 365.29 278.12C365.29 281.32 367.88 283.92 371.08 283.92C374.28 283.92 376.87 281.32 376.87 278.12C376.87 274.92 374.28 272.33 371.08 272.33ZM368.22 309.72C365.02 309.72 362.43 312.31 362.43 315.51C362.43 318.71 365.02 321.31 368.22 321.31C371.42 321.31 374 318.71 374 315.51C374 312.31 371.41 309.72 368.22 309.72ZM367.93 343.37C364.73 343.37 362.14 345.96 362.14 349.16C362.14 352.36 364.73 354.95 367.93 354.95C371.13 354.95 373.71 352.36 373.71 349.16C373.71 345.96 371.12 343.37 367.93 343.37ZM354.42 255.65C351.23 255.65 348.64 258.24 348.64 261.44C348.64 264.64 351.23 267.24 354.42 267.24C357.61 267.24 360.21 264.64 360.21 261.44C360.21 258.24 357.62 255.65 354.42 255.65ZM351.27 326.68C348.08 326.68 345.49 329.28 345.49 332.48C345.49 335.68 348.08 338.27 351.27 338.27C354.46 338.27 357.06 335.68 357.06 332.48C357.06 329.28 354.47 326.68 351.27 326.68ZM350.98 292.46C347.79 292.46 345.2 295.05 345.2 298.25C345.2 301.45 347.79 304.04 350.98 304.04C354.17 304.04 356.77 301.45 356.77 298.25C356.77 295.05 354.18 292.46 350.98 292.46Z" fill="#218DA4"/>
<path d="M477.6 432.41C464.32 459.6 453.93 488.93 446.42 520.42C439.38 521.35 431.49 523.97 422.75 528.25L422.11 527.87C414.47 497.96 403.57 468.63 389.4 439.87C396.44 438.97 404.34 436.36 413.08 432.03L413.71 432.41C419.31 458.79 427.47 483.01 438.21 505.06C446.61 484.11 453.42 462.06 458.64 438.91C464.58 437.43 470.69 435.13 476.96 432.03L477.6 432.41Z" fill="#218DA4"/>
<path d="M497.35 579.88C500.11 582.51 501.48 586.3 501.48 591.25C501.48 593.59 501.05 595.76 500.19 597.77C499.34 599.78 498.02 601.52 496.25 603.01C494.49 604.49 492.29 605.66 489.66 606.52C487.04 607.39 483.98 607.81 480.49 607.81C473.36 607.81 467.77 606.32 463.71 603.32C459.65 600.32 457.42 595.67 457 589.37H466.52C466.94 593.02 468.25 595.67 470.46 597.34C472.68 599 475.96 599.84 480.33 599.84C482.47 599.84 484.27 599.6 485.72 599.14C487.18 598.67 488.35 598.04 489.23 597.26C490.12 596.48 490.74 595.55 491.1 594.48C491.47 593.42 491.65 592.28 491.65 591.09C491.65 590.2 491.52 589.33 491.26 588.47C491 587.61 490.53 586.81 489.85 586.09C489.18 585.35 488.27 584.71 487.12 584.17C485.98 583.62 484.52 583.19 482.75 582.88L475.65 581.55C472.84 581.03 470.34 580.38 468.16 579.6C465.97 578.81 464.14 577.79 462.66 576.51C461.17 575.23 460.06 573.67 459.3 571.82C458.55 569.97 458.17 567.72 458.17 565.06C458.17 562.4 458.71 560.09 459.77 558.11C460.84 556.13 462.3 554.47 464.18 553.15C466.05 551.82 468.28 550.83 470.85 550.17C473.43 549.52 476.23 549.2 479.24 549.2C483.1 549.2 486.32 549.64 488.92 550.52C491.52 551.41 493.63 552.57 495.24 554C496.85 555.44 498.08 557.1 498.91 558.97C499.74 560.84 500.31 562.8 500.62 564.83L491.73 566.23C491 563.11 489.74 560.79 487.94 559.28C486.15 557.77 483.3 557.02 479.4 557.02C477.16 557.02 475.3 557.21 473.82 557.6C472.33 557.99 471.14 558.54 470.23 559.24C469.32 559.94 468.67 560.76 468.28 561.66C467.88 562.57 467.69 563.53 467.69 564.52C467.69 566.97 468.35 568.79 469.68 569.99C471.01 571.19 473.34 572.13 476.66 572.8L484.39 574.29C490.28 575.38 494.59 577.25 497.35 579.88Z" fill="#218DA4"/>
<path d="M525.46 432.41L524.82 432.03C516.08 436.32 508.19 438.93 501.15 439.87C493.64 471.34 483.24 500.68 469.96 527.87L470.6 528.25C476.87 525.15 482.99 522.86 488.92 521.38C490.75 513.21 492.79 505.18 495.04 497.28C500.17 496.73 505.24 496.46 510.25 496.46C515.63 496.46 520.9 496.84 526.03 497.6C529.04 507.33 531.65 517.42 533.85 527.87L534.49 528.25C543.23 523.92 551.12 521.3 558.16 520.42C544 491.66 533.1 462.32 525.46 432.41ZM510.44 487.02C506.32 487.02 502.25 486.86 498.22 486.51C501.57 475.81 505.28 465.38 509.36 455.23C514.23 465.25 518.58 475.72 522.4 486.64C518.46 486.9 514.47 487.02 510.44 487.02Z" fill="#218DA4"/>
<path d="M628.67 503.91L629.06 504.55C624.73 513.38 622.12 521.29 621.23 528.25C613 525.71 604.33 524.43 595.2 524.43C584.99 524.43 574.75 525.71 564.5 528.25L563.77 527.87C566.01 510.75 567.14 495.5 567.14 482.11C567.14 469.66 566.01 455.59 563.77 439.87C570.94 438.93 578.97 436.32 587.87 432.03L588.52 432.41C586.44 447.88 585.38 463.3 585.34 478.68C585.34 488.75 586.16 500.73 587.82 514.62C590.28 515.04 592.85 515.26 595.52 515.26C606.98 515.26 618.03 511.47 628.67 503.91Z" fill="#218DA4"/>
</mask>
<g mask="url(#mask0_1_53)">
<path d="M-2 0H627V608H-2V0Z" fill="url(#paint0_linear_1_53)"/>
</g>
</g>
<defs>
<linearGradient id="paint0_linear_1_53" x1="312.5" y1="0" x2="312.5" y2="608" gradientUnits="userSpaceOnUse">
<stop stop-color="#CC2E16"/>
<stop offset="1" stop-color="#FBBF00"/>
</linearGradient>
<clipPath id="clip0_1_53">
<rect width="629.06" height="607.81" fill="white"/>
</clipPath>
</defs>
</svg>
