<svg width="1440" height="281" viewBox="0 0 1440 281" fill="none" xmlns="http://www.w3.org/2000/svg">
<g filter="url(#filter0_d_15_94)">
<path d="M143.662 190.752L143 190.358C149.957 160.984 154.386 133.879 156.277 109.044C154.606 105.522 152.558 102.22 150.131 99.1394C157.443 98.1703 165.629 95.4598 174.706 91.0159L175.368 91.4098C182.325 121.753 190.583 147.4 200.141 168.367C208.374 148.905 215.222 127.922 220.682 105.419C219.886 102.866 218.744 100.77 217.247 99.1473C224.559 98.1781 232.745 95.4677 241.822 91.0238L242.484 91.4177C244.028 123.833 248.85 154.239 256.95 182.636C249.638 183.605 241.452 186.316 232.375 190.76L231.713 190.366C230.964 165.972 229.16 145.32 226.3 128.403C219.295 144.957 213.173 163.04 207.933 182.636C200.582 183.605 192.387 186.316 183.358 190.76L182.696 190.366C177.629 167.287 171.752 147.211 165.062 130.121C161.319 147.077 159.097 165.31 158.388 184.811C153.676 186.261 148.768 188.246 143.662 190.76V190.752Z" fill="white"/>
<path d="M267.516 190.752L266.854 190.358C268.879 172.614 269.896 156.8 269.896 142.933C269.896 130.026 268.879 115.434 266.854 99.1394C274.182 98.1703 282.392 95.4598 291.493 91.0159C297.174 94.3173 302.879 95.9719 308.599 95.9719C315.383 95.9719 322.183 94.3173 329.006 91.0159L329.4 91.6777C324.822 100.841 322.112 108.279 321.277 114.008C313.878 114.008 307.669 112.511 302.65 109.516C297.631 106.522 293.975 101.677 291.682 94.987C289.878 109.611 288.932 124.18 288.846 138.717C299.766 138.717 310.75 134.801 321.805 126.961L322.199 127.623C317.747 136.739 315.044 144.926 314.075 152.199C305.534 149.559 297.19 148.235 289.043 148.235C289.397 156.65 290.185 166.113 291.422 176.64C293.975 177.081 296.638 177.302 299.412 177.302C311.302 177.302 322.774 173.386 333.828 165.546L334.222 166.208C329.731 175.372 327.021 183.558 326.099 190.783C317.558 188.144 308.552 186.82 299.081 186.82C288.546 186.82 278.019 188.144 267.508 190.783L267.516 190.752Z" fill="white"/>
<path d="M336.145 190.752L335.483 190.358C342.441 160.984 346.869 133.879 348.76 109.044C347.089 105.522 345.041 102.22 342.614 99.1394C349.926 98.1703 358.112 95.4598 367.189 91.0159L367.851 91.4098C374.809 121.753 383.066 147.4 392.624 168.367C400.858 148.905 407.705 127.922 413.165 105.419C412.369 102.866 411.227 100.77 409.73 99.1473C417.042 98.1781 425.228 95.4677 434.305 91.0238L434.967 91.4177C436.511 123.833 441.333 154.239 449.433 182.636C442.121 183.605 433.935 186.316 424.858 190.76L424.196 190.366C423.448 165.972 421.643 145.32 418.783 128.403C411.778 144.957 405.656 163.04 400.416 182.636C393.065 183.605 384.871 186.316 375.841 190.76L375.179 190.366C370.113 167.287 364.235 147.211 357.545 130.121C353.802 147.077 351.581 165.31 350.871 184.811C346.16 186.261 341.251 188.246 336.145 190.76V190.752Z" fill="white"/>
<path d="M459.999 190.752L459.338 190.358C461.363 172.614 462.379 156.8 462.379 142.933C462.379 130.026 461.363 115.434 459.338 99.1394C466.665 98.1703 474.876 95.4598 483.976 91.0159C489.657 94.3173 495.362 95.9719 501.082 95.9719C507.866 95.9719 514.666 94.3173 521.489 91.0159L521.883 91.6777C517.306 100.841 514.595 108.279 513.76 114.008C506.361 114.008 500.152 112.511 495.133 109.516C490.114 106.522 486.458 101.677 484.165 94.987C482.361 109.611 481.415 124.18 481.329 138.717C492.249 138.717 503.233 134.801 514.288 126.961L514.682 127.623C510.23 136.739 507.527 144.926 506.558 152.199C498.017 149.559 489.673 148.235 481.526 148.235C481.88 156.65 482.668 166.113 483.905 176.64C486.458 177.081 489.121 177.302 491.895 177.302C503.785 177.302 515.257 173.386 526.312 165.546L526.706 166.208C522.214 175.372 519.504 183.558 518.582 190.783C510.041 188.144 501.035 186.82 491.564 186.82C481.029 186.82 470.503 188.144 459.992 190.783L459.999 190.752Z" fill="white"/>
<path d="M570.546 190.752H569.884C558.246 186.434 549.264 180.69 542.929 173.512C534.711 164.222 530.606 153.538 530.606 141.475C530.606 129.411 534.908 118.223 543.504 107.917C549.792 100.384 558.585 94.7505 569.884 91.0078H570.546C582.444 95.3257 591.702 101.07 598.313 108.248L598.116 108.973C591.552 110.162 583.618 113.353 574.312 118.554C565.803 114.015 556.891 111.754 547.586 111.754C545.12 117.08 543.883 122.809 543.883 128.931C543.883 142.365 550.611 153.593 564.061 162.623C571.428 167.555 579.339 170.021 587.81 170.021C587.896 168.304 587.943 166.547 587.943 164.734C587.943 157.383 586.927 150.047 584.902 142.735C592.214 141.766 600.409 139.056 609.478 134.612L610.139 135.006C607.941 144.295 606.838 153.018 606.838 161.165C606.838 168.698 607.941 175.852 610.139 182.636C602.827 183.605 594.633 186.316 585.564 190.76L584.902 190.366C585.517 188.12 586.029 185.811 586.423 183.432C581.876 186.292 576.589 188.742 570.546 190.767V190.752Z" fill="white"/>
<path d="M626.457 190.752L625.796 190.358C627.821 172.614 628.837 156.8 628.837 142.933C628.837 130.026 627.821 115.434 625.796 99.1394C633.123 98.1703 641.334 95.4598 650.434 91.0159C656.115 94.3173 661.82 95.9719 667.54 95.9719C674.324 95.9719 681.124 94.3173 687.947 91.0159L688.341 91.6777C683.763 100.841 681.053 108.279 680.218 114.008C672.819 114.008 666.61 112.511 661.591 109.516C656.572 106.522 652.916 101.677 650.623 94.987C648.819 109.611 647.873 124.18 647.779 138.717C658.699 138.717 669.683 134.801 680.738 126.961L681.132 127.623C676.68 136.739 673.977 144.926 673.008 152.199C664.467 149.559 656.123 148.235 647.976 148.235C648.33 156.65 649.118 166.113 650.355 176.64C652.908 177.081 655.571 177.302 658.345 177.302C670.235 177.302 681.707 173.386 692.762 165.546L693.156 166.208C688.664 175.372 685.954 183.558 685.032 190.783C676.491 188.144 667.485 186.82 658.014 186.82C647.479 186.82 636.953 188.144 626.442 190.783L626.457 190.752Z" fill="white"/>
<path d="M704.998 190.752L704.336 190.358C706.188 175.119 707.11 160.235 707.11 145.706C707.11 132.847 706.582 120.209 705.526 107.791C703.099 104.316 700.728 101.424 698.395 99.1393C705.707 98.1701 713.894 95.4597 722.971 91.0157L723.633 91.4097C735.388 119.46 749.327 144.012 765.448 165.057C766.063 154.712 766.37 144.91 766.37 135.66C766.37 121.698 765.511 108.799 763.793 96.9489C768.812 95.3651 773.745 93.3795 778.591 91L779.253 91.394C777.267 106.853 776.282 122.746 776.282 139.087C776.282 153.183 777.204 167.689 779.056 182.62C771.744 183.59 763.557 186.3 754.48 190.744L753.818 190.35C742.283 165.38 730.235 144.445 717.684 127.528C717.329 134.84 717.156 140.766 717.156 145.296C717.156 159.298 717.952 172.488 719.535 184.866C714.957 186.276 710.112 188.238 705.006 190.744L704.998 190.752Z" fill="white"/>
<path d="M798.399 190.752L797.737 190.358C799.762 172.614 800.779 156.8 800.779 142.933C800.779 130.026 799.762 115.434 797.737 99.1394C805.065 98.1703 813.275 95.4598 822.376 91.0159C828.057 94.3173 833.761 95.9719 839.482 95.9719C846.266 95.9719 853.066 94.3173 859.889 91.0159L860.283 91.6777C855.705 100.841 852.995 108.279 852.16 114.008C844.761 114.008 838.552 112.511 833.533 109.516C828.514 106.522 824.858 101.677 822.565 94.987C820.761 109.611 819.815 124.18 819.721 138.717C830.641 138.717 841.625 134.801 852.68 126.961L853.074 127.623C848.622 136.739 845.919 144.926 844.95 152.199C836.409 149.559 828.065 148.235 819.918 148.235C820.272 156.65 821.06 166.113 822.297 176.64C824.85 177.081 827.513 177.302 830.287 177.302C842.177 177.302 853.649 173.386 864.703 165.546L865.097 166.208C860.606 175.372 857.896 183.558 856.974 190.783C848.433 188.144 839.427 186.82 829.956 186.82C819.421 186.82 808.894 188.144 798.383 190.783L798.399 190.752Z" fill="white"/>
<path d="M876.806 190.752L876.144 190.358C878.169 180.367 879.186 169.974 879.186 159.18C879.186 149.212 878.169 140.151 876.144 131.988C883.409 131.027 891.532 128.348 900.523 123.936L901.185 124.33C899.112 133.272 898.009 143.074 897.875 153.719C900.964 154.807 904.273 155.358 907.803 155.358C915.304 155.358 921.088 152.585 925.145 147.045C927.793 143.382 929.117 139.04 929.117 134.021C929.117 128.521 927.155 123.77 923.223 119.752C918.629 115.04 911.727 112.684 902.5 112.684C890.122 112.684 879.028 117.175 869.21 126.165L868.816 125.574C872.646 114.922 874.781 105.782 875.222 98.1466C884.819 93.3875 894.424 91.0159 904.029 91.0159C916.817 91.0159 927.131 94.3488 934.963 101.015C943.835 108.602 948.279 118.058 948.279 129.372C948.279 139.789 944.458 148.645 936.815 155.941C934.892 157.785 932.82 159.392 930.598 160.755C935.475 167.248 943.772 174.544 955.489 182.636C948.177 183.605 939.99 186.316 930.913 190.76L930.275 190.366C924.988 181.777 918.141 173.985 909.726 166.98C905.313 166.98 901.516 166.618 898.34 165.885C898.868 171.448 899.821 177.026 901.185 182.636C893.936 183.605 885.812 186.316 876.806 190.76V190.752Z" fill="white"/>
<path d="M956.663 190.752L956.001 190.358C969.782 162.174 980.576 131.768 988.369 99.1394C995.681 98.1703 1003.87 95.4598 1012.94 91.0159L1013.61 91.4098C1021.53 122.415 1032.85 152.821 1047.56 182.628C1040.25 183.55 1032.06 186.261 1022.98 190.752L1022.32 190.358C1020.03 179.524 1017.33 169.068 1014.2 158.983C1008.87 158.187 1003.41 157.793 997.816 157.793C992.616 157.793 987.36 158.077 982.026 158.652C979.694 166.846 977.574 175.167 975.683 183.621C969.514 185.166 963.179 187.537 956.663 190.752ZM985.327 147.487C989.511 147.841 993.735 148.015 998.013 148.015C1002.29 148.015 1006.33 147.881 1010.43 147.621C1006.47 136.306 1001.95 125.448 996.886 115.056C992.655 125.582 988.802 136.393 985.327 147.487Z" fill="white"/>
<path d="M1067.97 190.752L1067.31 190.358C1069.34 172.614 1070.35 156.8 1070.35 142.933C1070.35 131.571 1069.56 118.909 1067.97 104.954C1058.5 106.538 1048.97 110.304 1039.37 116.253L1038.98 115.591C1043.47 106.436 1046.18 98.2412 1047.1 91.0159C1057.45 93.3481 1068.55 94.5143 1080.39 94.5143C1094.09 94.5143 1107.52 93.3481 1120.69 91.0159L1121.08 91.6777C1116.59 100.841 1113.88 109.028 1112.96 116.253C1106.57 110.486 1099.19 106.767 1090.83 105.088C1089.78 115.654 1089.25 127.087 1089.25 139.371C1089.25 151.655 1090.35 165.641 1092.55 182.636C1085.24 183.605 1077.05 186.316 1067.97 190.76V190.752Z" fill="white"/>
<path d="M1158.7 190.752H1158.03C1146.4 186.434 1137.41 180.69 1131.09 173.512C1122.88 164.222 1118.76 153.538 1118.76 141.475C1118.76 129.411 1123.07 118.223 1131.66 107.917C1137.95 100.384 1146.74 94.7505 1158.03 91.0078H1158.7C1170.25 95.3257 1179.23 101.07 1185.64 108.248C1193.85 117.451 1197.97 128.088 1197.97 140.151C1197.97 152.214 1193.66 163.489 1185.07 173.843C1179.08 181.068 1170.29 186.702 1158.7 190.752ZM1180.99 170.013C1183.45 164.687 1184.69 158.959 1184.69 152.837C1184.69 138.347 1177.79 127.205 1163.99 119.413C1154.99 114.307 1145.58 111.754 1135.75 111.754C1133.28 117.08 1132.05 122.809 1132.05 128.931C1132.05 143.374 1138.95 154.515 1152.75 162.355C1161.7 167.461 1171.11 170.013 1180.99 170.013Z" fill="white"/>
<path d="M1217.32 190.752L1216.66 190.358C1218.68 180.367 1219.7 169.974 1219.7 159.18C1219.7 149.212 1218.68 140.151 1216.66 131.988C1223.92 131.027 1232.04 128.348 1241.03 123.936L1241.7 124.33C1239.62 133.272 1238.52 143.074 1238.39 153.719C1241.48 154.807 1244.78 155.358 1248.31 155.358C1255.82 155.358 1261.6 152.585 1265.66 147.045C1268.3 143.382 1269.63 139.04 1269.63 134.021C1269.63 128.521 1267.67 123.77 1263.73 119.752C1259.14 115.04 1252.24 112.684 1243.01 112.684C1230.63 112.684 1219.54 117.175 1209.72 126.165L1209.33 125.574C1213.16 114.922 1215.29 105.782 1215.73 98.1466C1225.33 93.3875 1234.94 91.0159 1244.54 91.0159C1257.33 91.0159 1267.64 94.3488 1275.47 101.015C1284.35 108.602 1288.79 118.058 1288.79 129.372C1288.79 139.789 1284.97 148.645 1277.33 155.941C1275.4 157.785 1273.33 159.392 1271.11 160.755C1275.99 167.248 1284.28 174.544 1296 182.636C1288.69 183.605 1280.5 186.316 1271.42 190.76L1270.79 190.366C1265.5 181.777 1258.65 173.985 1250.24 166.98C1245.82 166.98 1242.03 166.618 1238.85 165.885C1239.38 171.448 1240.33 177.026 1241.7 182.636C1234.45 183.605 1226.32 186.316 1217.32 190.76V190.752Z" fill="white"/>
</g>
<defs>
<filter id="filter0_d_15_94" x="63" y="11" width="1313" height="259.783" filterUnits="userSpaceOnUse" color-interpolation-filters="sRGB">
<feFlood flood-opacity="0" result="BackgroundImageFix"/>
<feColorMatrix in="SourceAlpha" type="matrix" values="0 0 0 0 0 0 0 0 0 0 0 0 0 0 0 0 0 0 127 0" result="hardAlpha"/>
<feOffset/>
<feGaussianBlur stdDeviation="40"/>
<feColorMatrix type="matrix" values="0 0 0 0 0 0 0 0 0 0 0 0 0 0 0 0 0 0 0.75 0"/>
<feBlend mode="normal" in2="BackgroundImageFix" result="effect1_dropShadow_15_94"/>
<feBlend mode="normal" in="SourceGraphic" in2="effect1_dropShadow_15_94" result="shape"/>
</filter>
</defs>
</svg>
